<svg xmlns="http://www.w3.org/2000/svg" fill="none" viewBox="0 0 24 24" class="h-svgo-icon" style="fill:var(--neutral--0);color:var(--neutral--0);" data-v-340f5546="" data-v-03dae1ca=""><path fill="currentColor" d="M4.875 3.875a1 1 0 0 0 0 2h.015a1 1 0 1 0 0-2h-.015ZM8.625 3.875a1 1 0 1 0 0 2h10.5a1 1 0 1 0 0-2h-10.5ZM8.625 11a1 1 0 1 0 0 2h10.5a1 1 0 1 0 0-2h-10.5ZM7.625 19.125a1 1 0 0 1 1-1h10.5a1 1 0 1 1 0 2h-10.5a1 1 0 0 1-1-1ZM3.875 12a1 1 0 0 1 1-1h.015a1 1 0 1 1 0 2h-.015a1 1 0 0 1-1-1ZM4.875 18.125a1 1 0 1 0 0 2h.015a1 1 0 1 0 0-2h-.015Z"></path></svg>